<svg width="165" height="31" viewBox="0 0 165 31" fill="none" xmlns="http://www.w3.org/2000/svg">
<path d="M56.6646 8.56258H56.1567L57.6379 1.85579H58.1457L57.9764 2.57287C58.3573 2.02452 58.9921 1.72925 59.6692 1.72925C60.7695 1.72925 61.5735 2.48851 61.5735 3.75394C61.5735 5.35682 60.5579 6.83316 59.0344 6.83316C58.315 6.83316 57.6379 6.49571 57.2993 5.90517L56.6646 8.56258ZM59.4999 2.19324C58.8228 2.23542 58.2303 2.57287 57.8495 3.12122L57.3417 5.44118C57.6802 6.03172 58.315 6.36917 58.9498 6.32698C60.177 6.32698 60.9811 5.06155 60.9811 3.79612C60.9811 2.82596 60.3886 2.19324 59.4999 2.19324Z" fill="black"/>
<path d="M65.1282 1.72957C66.2285 1.64521 67.2018 2.48883 67.2864 3.58554C67.2864 3.6699 67.2864 3.75426 67.2864 3.83863C67.2864 5.39933 66.1438 6.7913 64.578 6.7913C63.4778 6.87566 62.5044 6.03204 62.4198 4.93533C62.4198 4.85097 62.4198 4.76661 62.4198 4.68225C62.4198 3.16373 63.5624 1.72957 65.1282 1.72957ZM65.1282 2.19356C63.9009 2.19356 63.0123 3.41681 63.0123 4.68225C63.0123 5.69459 63.6047 6.36949 64.6204 6.36949C65.8476 6.36949 66.7363 5.14624 66.7363 3.88081C66.694 2.86846 66.1015 2.19356 65.1282 2.19356Z" fill="black"/>
<path d="M71.7723 2.57304L69.4871 6.70678H68.9793L68.4714 1.85596H69.0216L69.4024 5.9897L71.6876 1.85596H72.1531L72.6187 5.9897L74.8192 1.85596H75.4117L72.7456 6.70678H72.2378L71.7723 2.57304Z" fill="black"/>
<path d="M78.2047 1.7293C79.305 1.68712 80.236 2.53074 80.2783 3.62745C80.2783 3.71181 80.2783 3.79617 80.2783 3.83835C80.2783 4.04926 80.236 4.26016 80.1936 4.47107H76.0887C76.0887 4.55543 76.0887 4.63979 76.0887 4.76633C76.0887 5.65214 76.6812 6.4114 77.8661 6.4114C78.4163 6.4114 78.9241 6.20049 79.3473 5.86304L79.5589 6.24267C79.051 6.6223 78.4586 6.83321 77.8661 6.83321C76.385 6.83321 75.5386 5.9474 75.5386 4.68197C75.4963 3.07909 76.6812 1.7293 78.2047 1.7293ZM79.7281 3.83835C79.8128 2.99473 79.178 2.27765 78.3316 2.19329C78.247 2.19329 78.1624 2.19329 78.0777 2.19329C77.0621 2.27765 76.2157 3.03691 76.0464 4.04926H79.6858C79.7281 3.96489 79.7705 3.88053 79.7281 3.83835Z" fill="black"/>
<path d="M82.098 1.85597H82.6058L82.4365 2.65741C82.8597 2.06687 83.5791 1.72942 84.2985 1.7716L84.1716 2.31996C84.0446 2.31996 83.9177 2.27778 83.833 2.27778C83.2406 2.31996 82.6904 2.65741 82.3519 3.16358L81.5902 6.70679H81.0823L82.098 1.85597Z" fill="black"/>
<path d="M87.1339 1.7293C88.2342 1.68712 89.1652 2.53074 89.2075 3.62745C89.2075 3.71181 89.2075 3.79617 89.2075 3.83835C89.2075 4.04926 89.1652 4.26016 89.1229 4.47107H85.0179C85.0179 4.55543 85.0179 4.63979 85.0179 4.76633C85.0179 5.65214 85.6104 6.4114 86.7953 6.4114C87.3455 6.4114 87.8533 6.20049 88.2342 5.86304L88.4457 6.24267C87.9379 6.6223 87.3455 6.83321 86.753 6.83321C85.2718 6.83321 84.4255 5.9474 84.4255 4.68197C84.4255 3.07909 85.6104 1.7293 87.1339 1.7293ZM88.6997 3.83835C88.7843 2.99473 88.1495 2.27765 87.3031 2.19329C87.2185 2.19329 87.1339 2.19329 87.0492 2.19329C86.0336 2.27765 85.1872 3.03691 85.0179 4.04926H88.6573C88.6997 3.96489 88.6997 3.88053 88.6997 3.83835Z" fill="black"/>
<path d="M95.0475 0H95.5976L94.1165 6.70679H93.524L93.6933 5.98971C93.3124 6.53807 92.6776 6.83333 92.0005 6.83333C90.9002 6.83333 90.0962 6.11626 90.0962 4.85082C90.0962 3.20576 91.1118 1.72942 92.6776 1.72942C93.397 1.72942 94.0741 2.06687 94.4127 2.65741L95.0475 0ZM92.1698 6.36934C92.8469 6.32716 93.4394 5.98971 93.8202 5.44136L94.328 3.07922C93.9895 2.48868 93.3547 2.15123 92.7199 2.19342C91.4927 2.19342 90.6887 3.45885 90.6887 4.72428C90.6887 5.73663 91.2811 6.36934 92.1698 6.36934Z" fill="black"/>
<path d="M98.8561 6.70679H98.3483L99.7871 0H100.295L99.7448 2.57305C100.126 2.02469 100.76 1.72942 101.438 1.72942C102.538 1.72942 103.342 2.48868 103.342 3.75411C103.342 5.357 102.326 6.83333 100.803 6.83333C100.083 6.87551 99.3639 6.49588 98.983 5.90535L98.8561 6.70679ZM101.268 2.19342C100.591 2.2356 99.9987 2.57305 99.6178 3.1214L99.11 5.44136C99.4485 6.03189 100.083 6.36934 100.718 6.32716C101.945 6.32716 102.749 5.06173 102.749 3.7963C102.749 2.82613 102.157 2.19342 101.268 2.19342Z" fill="black"/>
<path d="M104.019 8.18312C104.273 8.18312 104.484 8.05657 104.781 7.63476L105.373 6.74896L104.442 1.85596H104.992L105.796 6.11625L108.505 1.85596H109.14L105.289 7.80349C104.908 8.39402 104.484 8.73147 103.934 8.73147C103.723 8.73147 103.553 8.68929 103.342 8.64711L103.553 8.14094C103.68 8.14094 103.85 8.18312 104.019 8.18312Z" fill="black"/>
<path d="M16.6735 21.1329H11.9338L11.1721 23.1154H9.09845L13.161 12.8232H15.4039L19.4665 23.1154H17.3929L16.6735 21.1329ZM12.4416 19.53H16.1656L14.3036 14.5948L12.4416 19.53Z" fill="black"/>
<path d="M20.1859 12.7808H22.0056V18.9814C22.0056 20.6264 22.9366 21.681 24.6717 21.681C26.4068 21.681 27.2954 20.6264 27.2954 18.9814V12.7808H29.1151V19.0236C29.1151 21.5966 27.634 23.2838 24.6294 23.2838C21.6248 23.2838 20.1436 21.5544 20.1436 19.0236L20.1859 12.7808Z" fill="black"/>
<path d="M30.8926 17.9693C30.8926 14.8057 33.2624 12.6123 36.3094 12.6123C38.0021 12.5701 39.6102 13.4559 40.4566 14.9322L38.9331 15.7337C38.383 14.8057 37.4096 14.2573 36.3517 14.2152C34.3204 14.2152 32.7969 15.7759 32.7969 17.9271C32.7969 20.0783 34.3204 21.639 36.3517 21.639C37.4096 21.639 38.4253 21.0907 38.9331 20.1627L40.4989 20.9641C39.6525 22.4405 38.0444 23.3263 36.3517 23.2841C33.2201 23.2841 30.8926 21.1329 30.8926 17.9693Z" fill="black"/>
<path d="M44.3498 14.3836H41.2183V12.7808H49.3011V14.3836H46.1695V23.1151H44.3498V14.3836Z" fill="black"/>
<path d="M50.8669 12.7808H52.6866V23.0729H50.8669V12.7808Z" fill="black"/>
<path d="M59.6692 12.6123C62.7584 12.6123 64.959 14.8479 64.959 17.9271C64.959 21.0063 62.7584 23.2419 59.6692 23.2419C56.5799 23.2419 54.3793 21.0063 54.3793 17.9271C54.3793 14.8479 56.5799 12.6123 59.6692 12.6123ZM59.6692 14.2152C57.5955 14.2152 56.2413 15.8181 56.2413 17.9271C56.2413 20.0362 57.5532 21.6391 59.6692 21.6391C61.7851 21.6391 63.097 20.0362 63.097 17.9271C63.097 15.8181 61.7851 14.2574 59.6692 14.2152Z" fill="black"/>
<path d="M68.556 15.7334V23.0729H66.7363V12.7808H68.5983L73.8882 19.9515V12.7808H75.7079V23.0729H73.9728L68.556 15.7334Z" fill="black"/>
<path d="M90.8156 14.004L87.0493 23.1151H86.753L82.9444 14.004V23.1151H82.098V12.7808H83.4099L86.9223 21.3013L90.4347 12.7808H91.7466V23.0729H90.8579L90.8156 14.004Z" fill="black"/>
<path d="M100.76 20.5846H95.3014L94.2857 23.1154H93.2701L97.5019 12.8232H98.6022L102.834 23.1154H101.818L100.76 20.5846ZM95.5976 19.7831H100.464L98.0098 13.7512L95.5976 19.7831Z" fill="black"/>
<path d="M107.489 18.8548H105.204V23.1151H104.315V12.7808H108.166C109.944 12.7808 111.298 13.9197 111.298 15.8178C111.34 17.3785 110.113 18.7283 108.547 18.7705C108.505 18.7705 108.462 18.7705 108.42 18.7705L111.425 23.1151H110.367L107.489 18.8548ZM108.124 13.6244H105.246V18.0534H108.166C109.393 18.1799 110.494 17.252 110.578 16.0287C110.705 14.8055 109.817 13.7087 108.589 13.6244C108.42 13.5822 108.251 13.5822 108.124 13.6244Z" fill="black"/>
<path d="M115.572 18.2643L114.429 19.5297V23.1151H113.541V12.7808H114.429V18.433L119.423 12.7808H120.566L116.164 17.7159L120.989 23.1151H119.846L115.572 18.2643Z" fill="black"/>
<path d="M122.639 12.7808H129.198V13.5822H123.528V17.4207H129.072V18.2221H123.528V22.3137H129.198V23.1151H122.639V12.7808V12.7808Z" fill="black"/>
<path d="M134.023 13.5822H130.637V12.7808H138.297V13.5822H134.911V23.0729H134.023V13.5822Z" fill="black"/>
<path d="M140.117 12.7808H146.676V13.5822H141.005V17.4207H146.549V18.2221H141.005V22.3137H146.676V23.1151H140.117V12.7808Z" fill="black"/>
<path d="M152.051 18.8548H149.765V23.1151H148.877V12.7808H152.77C154.547 12.7808 155.902 13.9197 155.902 15.8178C155.944 17.3785 154.717 18.7283 153.151 18.7705C153.109 18.7705 153.066 18.7705 153.024 18.7705L156.029 23.1151H154.971L152.051 18.8548ZM152.643 13.6244H149.723V18.0534H152.643C153.87 18.0534 154.886 17.0411 154.886 15.8178C154.886 14.5945 153.87 13.5822 152.643 13.6244Z" fill="black"/>
<path d="M112.567 3.75403V4.30238H164.492V30.2437H0.507823V4.30238H52.4327V3.75403H0V30.7499H165V3.75403H112.567Z" fill="black"/>
</svg>
