<svg width="29" height="31" viewBox="0 0 29 31" fill="none" xmlns="http://www.w3.org/2000/svg">
<path d="M25.4139 9.35172L15.5262 4.12955C15.2071 3.96224 14.8564 3.87524 14.501 3.87524C14.1456 3.87524 13.7949 3.96224 13.4758 4.12955L3.58803 9.35172C3.05561 9.62785 2.60674 10.0588 2.29288 10.5951C1.97902 11.1313 1.81287 11.7513 1.81348 12.3839L1.81348 23.5615C1.81348 25.4312 3.25328 26.9521 5.0233 26.9521L23.9787 26.9521C25.7487 26.9521 27.1885 25.4312 27.1885 23.5615L27.1885 12.3839C27.1891 11.7513 27.0229 11.1313 26.7091 10.5951C26.3952 10.0588 25.9463 9.62785 25.4139 9.35172V9.35172ZM14.2959 5.8624C14.3598 5.82894 14.4299 5.81154 14.501 5.81154C14.5721 5.81154 14.6422 5.82894 14.706 5.8624L24.2998 10.9278L14.5576 16.0742C14.4938 16.1077 14.4237 16.1251 14.3526 16.1251C14.2815 16.1251 14.2114 16.1077 14.1475 16.0742L4.55205 11.0083L14.2959 5.8624Z" fill="white"/>
</svg>
