<svg width="16" height="17" viewBox="0 0 16 17" fill="none" xmlns="http://www.w3.org/2000/svg">
<path d="M4.03345 1.90927L0.664312 8.05101C0.556367 8.24921 0.500244 8.46705 0.500244 8.68781C0.500244 8.90857 0.556367 9.1264 0.664312 9.3246L4.03345 15.4663C4.2116 15.7971 4.48961 16.0759 4.8356 16.2708C5.1816 16.4658 5.58158 16.569 5.98971 16.5686L13.201 16.5686C14.4073 16.5686 15.3885 15.6743 15.3885 14.5748L15.3885 2.80078C15.3885 1.70134 14.4073 0.807013 13.201 0.807013L5.9897 0.807013C5.58158 0.806638 5.1816 0.909841 4.8356 1.10479C4.48961 1.29975 4.2116 1.57856 4.03345 1.90927V1.90927ZM1.78228 8.81517C1.76069 8.77553 1.74947 8.73196 1.74947 8.68781C1.74947 8.64366 1.76069 8.60009 1.78228 8.56045L5.05025 2.6013L8.37057 8.65263C8.39215 8.69227 8.40338 8.73583 8.40338 8.77998C8.40338 8.82414 8.39215 8.8677 8.37057 8.90734L5.1022 14.8675L1.78228 8.81517Z" fill="white"/>
</svg>
