<svg version="1.2" xmlns="http://www.w3.org/2000/svg" viewBox="0 0 158 64" width="158" height="64"><style>.a{fill:#2e328e}.b{fill:#ff0300}.c{fill:#fff}</style><path class="a" d="m36.1 0.9c4.9 1.7 1.6 9.7 1.6 9.7l-10.6 28-1 2.7-0.6 1.7-13.9-38.8c0 0-0.6-1.4-0.3-3.2h-11.3c2.6 2.1 3.5 4.7 3.5 4.7 0 0 14.1 37.6 15.2 40.6 1 2.9 3.3 4.5 3.3 4.5l5 3.6 20.6-53.5z"/><path class="a" d="m35.6 45.5l-3.2 9h123.7v-9z"/><path fill-rule="evenodd" d="m73.1 33.2l-3.3 5.7c-12.6 4.2-20.7-1.1-23.6-7.1-2.9-4.9-2.1-19.9 13.1-20.6 14.6 0.3 13.7 14 13.7 14h-21.7c0.2 5.4 3.3 8.6 5.4 9.8 9.3 4 16.4-1.8 16.4-1.8zm-6.3-11.8c0 0-0.6-6.6-7.5-6.6-6.4-0.1-7.5 4.8-7.9 6.6z"/><path  d="m47.6 0.9l-20.6 53.5h1.3l20.5-53.5z"/><path  d="m11.6 4.2l13.9 38.8 0.6-1.7c0 0-13.6-36.5-13.6-38.7-0.1-0.9 0-1.7 0-1.7h-1.2c-0.3 1.9 0.3 3.3 0.3 3.3z"/><path  d="m157.4 45.5h-1.3v9h1.3z"/><path  d="m99.8 39.3l3.4-5.9c0 0-9.2 7.1-17.6-0.2-6.2-5.4-4.5-16.5 4.6-18 6.5-0.2 8.3 2.1 9.2 2.9v-6.1c0 0-11.4-3.7-19 4-3.1 3.1-4.7 7.5-4.2 12 1.2 10.6 13.6 14.7 23.6 11.3z"/><path  d="m107.3 31.1c0 3.4 0.8 6.1 4 8.1 3.2 2 6.3 0.8 6.3 0.8l3-4.3c0 0-8.1 3.3-8-6.7v-13.1c0 0 0 0 3.9 0 2.9 0 4.1 1.2 4.1 1.2 0 0 0-3.5 0-5.4-0.5 0.3-2.5 0.3-7.9 0.3 0-1 0-8.9 0-8.9 0 0 0 0-2.4 0 0.6 10.2-7 10.7-7 10.7v2.1h4c0 0 0 11.9 0 15.2z"/><path  d="m122.1 39.5h9.8c-2.4-1.8-2.3-2.8-2.2-5.2 0-3 0-20.5 0-23.4-1.4 1-1.2 1.1-7.6 1.1 0.9 0.6 2.2 1.5 2.2 3.6 0 2 0 18.7 0 18.7 0 2.4 0.2 3.5-2.2 5.2z"/><path  d="m134.3 33l2.1 5.9c8 2.9 17.7 1.5 20.4-4.6 1.8-5.6-0.7-8.8-5.7-10.7-4.3-1.8-10.4-2.7-9.6-6.2 1.2-3 6.9-4 12.7-0.3v-5.1c-4.7-1.3-13-1.4-16.2 2.2-2.8 2.8-2.6 7.4-0.3 9.5 2.9 2.4 3.3 2 12 5.6 0.7 0.4 1.4 0.9 1.7 1.6 2.4 4.3-5.4 9.4-17.1 2.1z"/><path class="b" d="m127.7 8.3c2-0.6 3.1-2.7 2.5-4.7-0.6-2-2.7-3.1-4.6-2.5-2 0.6-3.1 2.7-2.5 4.7 0.6 2 2.7 3.1 4.6 2.5z"/><path fill-rule="evenodd" class="c" d="m77.3 53.3h-2q0.3-0.2 0.3-0.3 0-0.1-0.2-0.6l-0.5-1.5h-2.5l-0.5 1.5q-0.1 0.3-0.1 0.5 0 0.3 0.3 0.4h-1.8q0.4-0.2 0.5-0.4 0.2-0.2 0.4-0.9l1.7-4.2q0.1-0.3 0.1-0.4 0-0.3-0.2-0.4h1.5l2 5q0.3 0.6 0.4 0.9 0.2 0.3 0.6 0.4zm-2.7-3l-1-2.5-0.9 2.5z"/><path class="c" d="m83.2 53.3h-1.4v-0.6q-0.7 0.8-1.9 0.8-0.7 0-1.3-0.3-0.6-0.4-0.8-1.1-0.1-0.3-0.1-1.1v-2.8q0-0.5-0.1-0.7-0.1-0.4-0.4-0.5h1.9q-0.4 0.2-0.4 0.5-0.1 0.2-0.1 0.7v2.8q0 0.9 0.4 1.3 0.4 0.5 1.2 0.5 0.9 0 1.4-0.7 0.2-0.3 0.2-0.7v-3.2q0-0.5-0.1-0.7 0-0.3-0.3-0.5h1.8q-0.3 0.2-0.4 0.5 0 0.2 0 0.7v3.9q0 0.5 0 0.7 0.1 0.4 0.4 0.5z"/><path class="c" d="m89.7 52.1l-0.5 1.1q-0.7 0.3-1.5 0.3-1.7 0-2.7-0.9-1-0.9-1-2.4 0-1.5 1-2.4 1-1 2.4-1 0.8 0 1.8 0.3v1.1q-0.9-0.5-1.8-0.5-1 0-1.6 0.6-0.7 0.7-0.7 1.7 0 1.1 0.7 1.9 0.7 0.8 1.8 0.8 0.9 0 2.1-0.6z"/><path class="c" d="m94.8 46.9l-0.3 1.2q-0.2-0.3-0.4-0.3-0.2-0.1-0.5-0.1-0.1 0-0.3 0-0.2 0-0.4 0h-0.2v4.5q0 0.5 0.1 0.7 0.1 0.2 0.4 0.4h-1.9q0.3-0.1 0.4-0.5 0.1-0.2 0.1-0.7v-4.4q-0.3 0-0.8 0-0.5 0-0.7 0.1-0.3 0-0.6 0.3l0.4-1.2q0.2 0.1 0.5 0.1h3.6q0.1 0 0.3 0 0.1 0 0.1 0 0 0 0.2-0.1z"/><path class="c" d="m97 53.3h-1.8q0.3-0.1 0.4-0.5 0-0.2 0-0.7v-3.9q0-0.5 0-0.7-0.1-0.4-0.4-0.5h1.8q-0.3 0.1-0.4 0.5 0 0.2 0 0.7v3.9q0 0.5 0 0.7 0.1 0.4 0.4 0.5z"/><path fill-rule="evenodd" class="c" d="m105 50.1q0 1.4-1.1 2.4-1 1-2.5 1-1.5 0-2.5-1-1-0.9-1-2.3 0-1.4 1-2.4 1.1-1 2.6-1 1.5 0 2.5 1 0.4 0.4 0.7 1 0.3 0.7 0.3 1.3zm-1.1 0.2q0-1.1-0.7-1.9-0.7-0.9-1.8-0.9-1.1 0-1.8 0.7-0.7 0.7-0.7 1.8 0 1.2 0.8 2.1 0.7 0.7 1.7 0.7 1.1 0 1.8-0.7 0.7-0.7 0.7-1.8z"/><path class="c" d="m112.2 47q-0.3 0.2-0.4 0.4-0.1 0.2-0.1 0.7v5.6q-0.7-0.3-1.4-1.1l-3.4-4.3v3.9q0 0.5 0.1 0.7 0.2 0.3 0.5 0.4h-1.8q0.3-0.2 0.4-0.4 0.1-0.2 0.1-0.7v-4.1q0-0.5-0.1-0.7-0.1-0.2-0.4-0.4h1.5q0 0 0.2 0.3l3.6 4.6v-3.8q0-0.5-0.2-0.7-0.1-0.2-0.4-0.4z"/><path class="c" d="m117.5 51.5q0 0.7-0.6 1.3-0.7 0.7-2 0.7-0.9 0-1.7-0.3l-0.3-1.2q1 0.8 2.1 0.8 0.6 0 1-0.3 0.4-0.3 0.4-0.7 0-0.4-0.3-0.7-0.2-0.2-1.2-0.7-1-0.4-1.3-0.7-0.5-0.5-0.5-1.2 0-0.7 0.6-1.2 0.7-0.5 1.8-0.5 0.7 0 1.4 0.2v1.1q-0.6-0.6-1.5-0.6-0.6 0-0.9 0.3-0.4 0.2-0.4 0.6 0 0.4 0.3 0.6 0.3 0.3 1.2 0.7 1 0.4 1.4 0.7 0.5 0.4 0.5 1.1z"/><path class="b" d="m37.8 62.4l-0.5 1.1q-0.7 0.3-1.5 0.3-1.7 0-2.7-0.9-1-0.9-1-2.4 0-1.5 1-2.4 1-1 2.5-1 0.7 0 1.7 0.2v1.2q-0.9-0.6-1.8-0.6-1 0-1.6 0.7-0.7 0.7-0.7 1.7 0 1.1 0.7 1.9 0.7 0.8 1.8 0.8 0.9 0 2.1-0.6z"/><path fill-rule="evenodd" class="b" d="m45.3 60.4q0 1.4-1.1 2.4-1 1-2.5 1-1.5 0-2.5-1-1.1-0.9-1.1-2.3 0-1.5 1.1-2.4 1-1 2.6-1 1.5 0 2.5 0.9 0.4 0.5 0.7 1.1 0.3 0.7 0.3 1.3zm-1.1 0.2q0-1.2-0.7-2-0.7-0.8-1.8-0.8-1.1 0-1.8 0.7-0.7 0.7-0.7 1.8 0 1.2 0.8 2.1 0.7 0.7 1.7 0.7 1.1 0 1.8-0.7 0.7-0.7 0.7-1.8z"/><path class="b" d="m50.6 62.4l-0.5 1.2h-4q0.3-0.1 0.4-0.5 0.1-0.2 0.1-0.7v-3.9q0-0.5-0.1-0.7-0.1-0.4-0.4-0.5h1.9q-0.3 0.1-0.4 0.5-0.1 0.2-0.1 0.7v4.4q0.7 0.1 1.3 0.1 0.6 0 0.9-0.2 0.4-0.1 0.9-0.4z"/><path class="b" d="m55.7 62.4l-0.5 1.2h-4q0.3-0.1 0.4-0.5 0-0.2 0-0.7v-3.9q0-0.5 0-0.7-0.1-0.4-0.4-0.5h1.8q-0.3 0.1-0.4 0.5 0 0.2 0 0.7v4.4q0.7 0.1 1.3 0.1 0.5 0 0.9-0.2 0.4-0.1 0.9-0.4z"/><path class="b" d="m60.8 62.4l-0.5 1.2h-4q0.3-0.1 0.4-0.5 0-0.2 0-0.7v-3.9q0-0.5 0-0.7-0.1-0.4-0.4-0.5h3.2q0.2 0 0.4-0.1v1.1q-0.3-0.2-0.6-0.3-0.2-0.1-0.6-0.1-0.6 0-1 0.1v1.8h1.3q0.2 0 0.3 0v1q-0.2-0.3-0.7-0.3h-0.9v2.3q0.6 0.1 1.2 0.1 1.1 0 1.9-0.5z"/><path class="b" d="m66.9 62.4l-0.5 1.1q-0.7 0.3-1.5 0.3-1.7 0-2.7-0.9-1-0.9-1-2.4 0-1.5 1-2.4 1-1 2.5-1 0.7 0 1.7 0.2v1.2q-0.9-0.6-1.8-0.6-1 0-1.6 0.7-0.7 0.7-0.7 1.7 0 1.1 0.7 1.9 0.7 0.8 1.8 0.8 0.9 0 2.1-0.6z"/><path class="b" d="m72 57.2l-0.3 1.1q-0.1-0.2-0.4-0.3-0.1 0-0.5 0-0.1 0-0.2 0-0.2 0-0.5 0h-0.1v4.5q0 0.5 0.1 0.7 0.1 0.2 0.4 0.4h-1.9q0.3-0.1 0.4-0.5 0-0.2 0-0.7v-4.4q-0.3 0-0.8 0-0.4 0-0.6 0-0.3 0.1-0.6 0.3l0.3-1.1q0.2 0.1 0.5 0.1h3.7q0.1 0 0.2-0.1 0.1 0 0.1 0 0.1 0 0.2 0z"/><path fill-rule="evenodd" class="b" d="m78.6 63.6h-2q0.3-0.2 0.3-0.3 0-0.2-0.2-0.6l-0.5-1.5h-2.5l-0.5 1.5q-0.1 0.3-0.1 0.5 0 0.3 0.3 0.4h-1.8q0.4-0.2 0.5-0.4 0.2-0.2 0.4-0.9l1.7-4.2q0.1-0.3 0.1-0.5 0-0.2-0.2-0.3h1.5l2 5q0.3 0.6 0.5 0.9 0.2 0.3 0.5 0.4zm-2.7-3l-1-2.5-0.9 2.5z"/><path fill-rule="evenodd" class="b" d="m84 61.6q0 0.6-0.3 1.1-0.3 0.4-0.9 0.7-0.6 0.2-1.7 0.2h-2q0.3-0.1 0.4-0.5 0-0.2 0-0.7v-3.9q0-0.5 0-0.7-0.1-0.4-0.4-0.5h1.4q-0.1 0 0.1-0.1 0.2 0 0.4 0h0.3q0.9 0 1.3 0.3 0.8 0.4 0.8 1.2 0 0.6-0.6 1-0.1 0.1-0.4 0.2 0.5 0.1 0.7 0.3 0.9 0.5 0.9 1.4zm-1.6-2.8q0-0.4-0.4-0.7-0.3-0.2-0.9-0.2-0.3 0-0.6 0v1.9q0.1 0 0.3 0 0.7 0 1.1-0.2 0.5-0.3 0.5-0.8zm0.5 3q0-0.7-0.4-1-0.5-0.4-1.3-0.4-0.4 0-0.7 0.1v2.4q0.4 0.1 0.8 0.1 0.8 0 1.2-0.3 0.4-0.4 0.4-0.9z"/><path class="b" d="m89.4 62.4l-0.5 1.2h-4q0.3-0.1 0.4-0.5 0-0.2 0-0.7v-3.9q0-0.5 0-0.7-0.1-0.4-0.4-0.5h1.8q-0.3 0.1-0.4 0.5 0 0.2 0 0.7v4.4q0.7 0.1 1.3 0.1 0.5 0 0.9-0.2 0.4-0.1 0.9-0.4z"/><path class="b" d="m94.5 62.4l-0.5 1.2h-4q0.3-0.1 0.4-0.5 0-0.2 0-0.7v-3.9q0-0.5 0-0.7-0.1-0.4-0.4-0.5h3.2q0.2 0 0.4-0.1v1.1q-0.3-0.2-0.6-0.3-0.2-0.1-0.6-0.1-0.6 0-1 0.1v1.8h1.3q0.2 0 0.3 0v1q-0.2-0.3-0.8-0.3h-0.8v2.3q0.6 0.1 1.2 0.1 1.1 0 1.9-0.5z"/><path class="b" d="m99.5 61.8q0 0.7-0.6 1.3-0.7 0.7-2 0.7-0.9 0-1.7-0.3l-0.3-1.2q1 0.8 2.1 0.8 0.6 0 1.1-0.3 0.4-0.3 0.4-0.7 0-0.4-0.3-0.7-0.3-0.2-1.3-0.7-1-0.4-1.3-0.8-0.5-0.4-0.5-1.1 0-0.8 0.6-1.2 0.7-0.5 1.8-0.5 0.7 0 1.5 0.2v1.1q-0.7-0.6-1.6-0.6-0.5 0-0.9 0.2-0.3 0.3-0.3 0.7 0 0.3 0.2 0.6 0.3 0.2 1.2 0.6 1 0.5 1.4 0.8 0.5 0.4 0.5 1.1z"/><path class="b" d="m107.3 61.8q0 0.7-0.6 1.3-0.8 0.7-2.1 0.7-0.8 0-1.7-0.3l-0.3-1.2q1 0.8 2.2 0.8 0.6 0 1-0.3 0.4-0.3 0.4-0.7 0-0.4-0.3-0.7-0.3-0.2-1.3-0.7-0.9-0.4-1.3-0.8-0.5-0.4-0.5-1.1 0-0.8 0.7-1.2 0.6-0.5 1.7-0.5 0.7 0 1.5 0.2v1.1q-0.7-0.6-1.5-0.6-0.6 0-1 0.2-0.3 0.3-0.3 0.7 0 0.3 0.3 0.6 0.2 0.2 1.1 0.6 1.1 0.5 1.4 0.8 0.6 0.4 0.6 1.1z"/><path class="b" d="m112.7 58.9q0 0.8-0.7 1.3-0.6 0.6-1.5 0.6-0.3 0-0.7-0.2 0.9-0.1 1.3-0.4 0.5-0.5 0.5-1.1 0-0.5-0.4-0.9-0.4-0.3-1-0.3-0.4 0-0.7 0.1v4.5q0 0.5 0.1 0.7 0.1 0.3 0.4 0.4h-1.9q0.3-0.1 0.4-0.5 0-0.2 0-0.7v-3.9q0-0.5 0-0.7-0.1-0.4-0.4-0.5h0.9q0.1 0 0.4-0.1 0.3 0 0.7 0h0.3q0.8 0 1.3 0.3 0.4 0.2 0.7 0.6 0.3 0.4 0.3 0.8z"/><path class="b" d="m117.9 62.4l-0.4 1.2h-4.1q0.3-0.1 0.4-0.5 0-0.2 0-0.7v-3.9q0-0.5 0-0.7-0.1-0.4-0.4-0.5h3.2q0.3 0 0.4-0.1v1.1q-0.3-0.2-0.5-0.3-0.2-0.1-0.7-0.1-0.6 0-1 0.1v1.8h1.3q0.2 0 0.3 0v1q-0.2-0.3-0.7-0.3h-0.9v2.3q0.6 0.1 1.2 0.1 1.2 0 1.9-0.5z"/><path class="b" d="m124 62.4l-0.5 1.1q-0.7 0.3-1.5 0.3-1.6 0-2.6-0.9-1-0.9-1-2.4 0-1.5 0.9-2.4 1-1 2.5-1 0.7 0 1.7 0.2v1.2q-0.9-0.6-1.7-0.6-1 0-1.7 0.7-0.6 0.7-0.6 1.7 0 1.1 0.7 1.9 0.7 0.8 1.7 0.8 0.9 0 2.1-0.6z"/><path class="b" d="m126.5 63.6h-1.9q0.3-0.1 0.4-0.5 0.1-0.2 0.1-0.7v-3.9q0-0.5-0.1-0.7-0.1-0.4-0.4-0.5h1.9q-0.3 0.1-0.4 0.5-0.1 0.2-0.1 0.7v3.9q0 0.5 0.1 0.7 0.1 0.4 0.4 0.5z"/><path fill-rule="evenodd" class="b" d="m134 63.6h-2q0.3-0.2 0.3-0.3 0-0.2-0.1-0.6l-0.6-1.5h-2.5l-0.5 1.5q-0.1 0.3-0.1 0.5 0 0.3 0.3 0.4h-1.8q0.4-0.2 0.5-0.4 0.2-0.2 0.4-0.9l1.7-4.2q0.2-0.3 0.2-0.5 0-0.2-0.3-0.3h1.5l2 5q0.3 0.6 0.5 0.9 0.2 0.3 0.5 0.4zm-2.7-3l-0.9-2.5-1 2.5z"/><path class="b" d="m139 62.4l-0.6 1.2h-3.9q0.3-0.1 0.4-0.5 0-0.2 0-0.7v-3.9q0-0.5 0-0.7-0.1-0.4-0.4-0.5h1.8q-0.3 0.1-0.4 0.5 0 0.2 0 0.7v4.4q0.7 0.1 1.3 0.1 0.5 0 0.9-0.2 0.4-0.1 0.9-0.4z"/><path class="b" d="m141.4 63.6h-1.8q0.3-0.1 0.4-0.5 0-0.2 0-0.7v-3.9q0-0.5 0-0.7-0.1-0.4-0.4-0.5h1.8q-0.3 0.1-0.4 0.5 0 0.2 0 0.7v3.9q0 0.5 0 0.7 0.1 0.4 0.4 0.5z"/><path class="b" d="m146.8 61.8q0 0.7-0.6 1.3-0.7 0.7-2 0.7-0.9 0-1.7-0.3l-0.3-1.2q1 0.8 2.1 0.8 0.7 0 1.1-0.3 0.4-0.3 0.4-0.7 0-0.4-0.3-0.7-0.3-0.2-1.3-0.7-0.9-0.4-1.3-0.8-0.5-0.4-0.5-1.1 0-0.8 0.6-1.2 0.7-0.5 1.8-0.5 0.7 0 1.5 0.2v1.1q-0.7-0.6-1.6-0.6-0.5 0-0.9 0.2-0.3 0.3-0.3 0.7 0 0.3 0.2 0.6 0.3 0.2 1.2 0.6 1 0.5 1.4 0.8 0.5 0.4 0.5 1.1z"/><path class="b" d="m152.2 57.2l-0.3 1.1q-0.2-0.2-0.4-0.3-0.2 0-0.6 0 0 0-0.2 0-0.2 0-0.4 0h-0.2v4.5q0 0.5 0.1 0.7 0.1 0.2 0.4 0.4h-1.9q0.3-0.1 0.4-0.5 0-0.2 0-0.7v-4.4q-0.3 0-0.7 0-0.5 0-0.7 0-0.3 0.1-0.6 0.3l0.3-1.1q0.2 0.1 0.5 0.1h3.7q0.1 0 0.2-0.1 0.2 0 0.2 0 0 0 0.2 0z"/><path class="b" d="m157.1 61.8q0 0.7-0.6 1.3-0.8 0.7-2.1 0.7-0.9 0-1.7-0.3l-0.3-1.2q1 0.8 2.2 0.8 0.6 0 1-0.3 0.4-0.3 0.4-0.7 0-0.4-0.3-0.7-0.3-0.2-1.3-0.7-0.9-0.4-1.3-0.8-0.5-0.4-0.5-1.1 0-0.8 0.6-1.2 0.7-0.5 1.8-0.5 0.7 0 1.5 0.2v1.1q-0.7-0.6-1.5-0.6-0.6 0-1 0.2-0.3 0.3-0.3 0.7 0 0.3 0.3 0.6 0.2 0.2 1.1 0.6 1.1 0.5 1.4 0.8 0.6 0.4 0.6 1.1z"/></svg>